<?xml version="1.0" encoding="UTF-8" standalone="no"?>
<!-- Created with Inkscape (http://www.inkscape.org/) -->

<svg
   xmlns:osb="http://www.openswatchbook.org/uri/2009/osb"
   xmlns:dc="http://purl.org/dc/elements/1.1/"
   xmlns:cc="http://creativecommons.org/ns#"
   xmlns:rdf="http://www.w3.org/1999/02/22-rdf-syntax-ns#"
   xmlns:svg="http://www.w3.org/2000/svg"
   xmlns="http://www.w3.org/2000/svg"
   xmlns:sodipodi="http://sodipodi.sourceforge.net/DTD/sodipodi-0.dtd"
   xmlns:inkscape="http://www.inkscape.org/namespaces/inkscape"
   width="210mm"
   height="297mm"
   viewBox="0 0 210 297"
   version="1.1"
   id="svg8"
   inkscape:version="0.92.4 5da689c313, 2019-01-14"
   sodipodi:docname="prolate_AM.svg">
  <defs
     id="defs2">
    <marker
       inkscape:stockid="Arrow2Lend"
       orient="auto"
       refY="0.0"
       refX="0.0"
       id="Arrow2Lend"
       style="overflow:visible;"
       inkscape:isstock="true">
      <path
         id="path856"
         style="fill-rule:evenodd;stroke-width:0.625;stroke-linejoin:round;stroke:#000000;stroke-opacity:1;fill:#000000;fill-opacity:1"
         d="M 8.7185878,4.0337352 L -2.2072895,0.016013256 L 8.7185884,-4.0017078 C 6.9730900,-1.6296469 6.9831476,1.6157441 8.7185878,4.0337352 z "
         transform="scale(1.1) rotate(180) translate(1,0)" />
    </marker>
    <marker
       inkscape:stockid="Arrow2Mstart"
       orient="auto"
       refY="0.0"
       refX="0.0"
       id="Arrow2Mstart"
       style="overflow:visible"
       inkscape:isstock="true">
      <path
         id="path859"
         style="fill-rule:evenodd;stroke-width:0.625;stroke-linejoin:round;stroke:#000000;stroke-opacity:1;fill:#000000;fill-opacity:1"
         d="M 8.7185878,4.0337352 L -2.2072895,0.016013256 L 8.7185884,-4.0017078 C 6.9730900,-1.6296469 6.9831476,1.6157441 8.7185878,4.0337352 z "
         transform="scale(0.6) translate(0,0)" />
    </marker>
    <marker
       inkscape:isstock="true"
       style="overflow:visible"
       id="marker2703"
       refX="0.0"
       refY="0.0"
       orient="auto"
       inkscape:stockid="Arrow2Lstart">
      <path
         transform="scale(1.1) translate(1,0)"
         d="M 8.7185878,4.0337352 L -2.2072895,0.016013256 L 8.7185884,-4.0017078 C 6.9730900,-1.6296469 6.9831476,1.6157441 8.7185878,4.0337352 z "
         style="fill-rule:evenodd;stroke-width:0.625;stroke-linejoin:round;stroke:#000000;stroke-opacity:1;fill:#000000;fill-opacity:1"
         id="path2701" />
    </marker>
    <linearGradient
       id="linearGradient2388"
       osb:paint="solid">
      <stop
         style="stop-color:#5f8dd3;stop-opacity:1;"
         offset="0"
         id="stop2386" />
    </linearGradient>
    <linearGradient
       id="linearGradient838"
       osb:paint="solid">
      <stop
         style="stop-color:#5f8dd3;stop-opacity:1;"
         offset="0"
         id="stop836" />
    </linearGradient>
  </defs>
  <sodipodi:namedview
     id="base"
     pagecolor="#ffffff"
     bordercolor="#666666"
     borderopacity="1.0"
     inkscape:pageopacity="0.0"
     inkscape:pageshadow="2"
     inkscape:zoom="7.919596"
     inkscape:cx="188.69675"
     inkscape:cy="987.98076"
     inkscape:document-units="mm"
     inkscape:current-layer="g2405"
     showgrid="false"
     inkscape:window-width="3840"
     inkscape:window-height="2049"
     inkscape:window-x="0"
     inkscape:window-y="0"
     inkscape:window-maximized="1" />
  <metadata
     id="metadata5">
    <rdf:RDF>
      <cc:Work
         rdf:about="">
        <dc:format>image/svg+xml</dc:format>
        <dc:type
           rdf:resource="http://purl.org/dc/dcmitype/StillImage" />
        <dc:title />
      </cc:Work>
    </rdf:RDF>
  </metadata>
  <g
     inkscape:label="Layer 1"
     inkscape:groupmode="layer"
     id="layer1">
    <g
       id="g2405"
       transform="matrix(0.69439607,0,0,0.69439607,36.313192,6.6325221)">
      <ellipse
         style="opacity:0.86000001;fill:#5f8dd3;fill-opacity:1;stroke:#000000;stroke-width:0.72923136;stroke-linecap:butt;stroke-linejoin:round;stroke-miterlimit:4;stroke-dasharray:none;stroke-dashoffset:0;stroke-opacity:1"
         id="ellipse2401"
         cx="63.215546"
         cy="-48.419361"
         rx="29.99259"
         ry="9.99753"
         transform="rotate(90)" />
      <text
         id="text3643"
         y="19.022249"
         x="51.771317"
         style="font-style:normal;font-variant:normal;font-weight:normal;font-stretch:normal;font-size:15.24106121px;line-height:1.25;font-family:cmmi10;-inkscape-font-specification:'cmmi10, Normal';font-variant-ligatures:normal;font-variant-caps:normal;font-variant-numeric:normal;font-feature-settings:normal;text-align:start;letter-spacing:0px;word-spacing:0px;writing-mode:lr-tb;text-anchor:start;fill:#000000;fill-opacity:1;stroke:none;stroke-width:0.38102654"
         xml:space="preserve"><tspan
           style="font-style:normal;font-variant:normal;font-weight:normal;font-stretch:normal;font-size:15.24106121px;font-family:cmmi10;-inkscape-font-specification:'cmmi10, Normal';font-variant-ligatures:normal;font-variant-caps:normal;font-variant-numeric:normal;font-feature-settings:normal;text-align:start;writing-mode:lr-tb;text-anchor:start;stroke-width:0.38102654"
           y="19.022249"
           x="51.771317"
           id="tspan3641"
           sodipodi:role="line">z</tspan></text>
      <path
         style="opacity:0.86000001;fill:none;fill-opacity:1;stroke:#000000;stroke-width:1.00157475;stroke-linecap:butt;stroke-linejoin:round;stroke-miterlimit:4;stroke-dasharray:none;stroke-dashoffset:0;stroke-opacity:1;marker-mid:url(#Arrow2Mstart)"
         d="M 52.302734 180.89258 A 24.434242 52.223557 0 0 0 52.662109 183.20312 A 24.434242 52.223557 0 0 0 53.660156 187.96875 A 24.434242 52.223557 0 0 0 54.875 192.49609 A 24.434242 52.223557 0 0 0 56.294922 196.74219 A 24.434242 52.223557 0 0 0 57.908203 200.66406 A 24.434242 52.223557 0 0 0 59.695312 204.22266 A 24.434242 52.223557 0 0 0 61.638672 207.38281 A 24.434242 52.223557 0 0 0 63.720703 210.11133 A 24.434242 52.223557 0 0 0 65.919922 212.38086 A 24.434242 52.223557 0 0 0 68.214844 214.17188 A 24.434242 52.223557 0 0 0 70.582031 215.46289 A 24.434242 52.223557 0 0 0 72.996094 216.24219 A 24.434242 52.223557 0 0 0 75.435547 216.50391 A 24.434242 52.223557 0 0 0 77.164062 216.37305 A 24.434242 52.223557 0 0 0 79.587891 215.74414 A 24.434242 52.223557 0 0 0 81.972656 214.59961 A 24.434242 52.223557 0 0 0 84.289062 212.95508 A 24.434242 52.223557 0 0 0 86.519531 210.82227 A 24.434242 52.223557 0 0 0 88.636719 208.22461 A 24.434242 52.223557 0 0 0 90.625 205.1875 A 24.434242 52.223557 0 0 0 92.458984 201.74219 A 24.434242 52.223557 0 0 0 94.123047 197.92383 A 24.434242 52.223557 0 0 0 95.601562 193.76758 A 24.434242 52.223557 0 0 0 96.878906 189.31641 A 24.434242 52.223557 0 0 0 97.941406 184.61719 A 24.434242 52.223557 0 0 0 98.779297 179.71289 A 24.434242 52.223557 0 0 0 99.382812 174.6543 A 24.434242 52.223557 0 0 0 99.748047 169.49414 A 24.434242 52.223557 0 0 0 99.869141 164.2793 A 24.434242 52.223557 0 0 0 99.808594 160.58594 A 24.434242 52.223557 0 0 0 99.513672 155.4043 A 24.434242 52.223557 0 0 0 98.978516 150.31055 A 24.434242 52.223557 0 0 0 98.208984 145.35547 A 24.434242 52.223557 0 0 0 97.292969 140.98633 C 86.847543 147.89592 74.3406 158.17432 59.498047 173.0293 C 56.917388 175.65304 54.630923 178.27342 52.302734 180.89258 z "
         id="path832"
         transform="matrix(0.38102654,0,0,0.38102654,-52.294639,-9.5514972)" />
      <path
         inkscape:connector-curvature="0"
         id="path2699"
         d="M 48.383834,12.233567 V 104.17021"
         style="fill:none;stroke:#000000;stroke-width:0.52851681;stroke-linecap:butt;stroke-linejoin:miter;stroke-miterlimit:4;stroke-dasharray:none;stroke-opacity:1;marker-start:url(#marker2703)" />
      <path
         style="fill:none;stroke:#000000;stroke-width:0.37177813px;stroke-linecap:butt;stroke-linejoin:miter;stroke-opacity:1;marker-end:url(#Arrow2Lend)"
         d="M 48.473271,63.215546 20.613067,36.609684"
         id="path1341"
         inkscape:connector-curvature="0"
         sodipodi:nodetypes="cc" />
      <text
         xml:space="preserve"
         style="font-style:normal;font-variant:normal;font-weight:normal;font-stretch:normal;font-size:8.12856579px;line-height:1.25;font-family:cmmi10;-inkscape-font-specification:'cmmi10, Normal';font-variant-ligatures:normal;font-variant-caps:normal;font-variant-numeric:normal;font-feature-settings:normal;text-align:start;letter-spacing:0px;word-spacing:0px;writing-mode:lr-tb;text-anchor:start;fill:#000000;fill-opacity:1;stroke:none;stroke-width:0.38102654"
         x="23.758247"
         y="50.832996"
         id="text2019"><tspan
           sodipodi:role="line"
           id="tspan2017"
           x="23.758247"
           y="50.832996"
           style="font-style:normal;font-variant:normal;font-weight:normal;font-stretch:normal;font-size:8.12856579px;font-family:cmmi10;-inkscape-font-specification:'cmmi10, Normal';font-variant-ligatures:normal;font-variant-caps:normal;font-variant-numeric:normal;font-feature-settings:normal;text-align:start;writing-mode:lr-tb;text-anchor:start;stroke-width:0.38102654">I</tspan></text>
      <path
         style="fill:none;stroke:#000000;stroke-width:0.38171899;stroke-linecap:butt;stroke-linejoin:miter;stroke-miterlimit:4;stroke-dasharray:1.14515694, 1.14515694;stroke-dashoffset:0;stroke-opacity:1"
         d="M 20.33461,36.321013 H 48.371213"
         id="path2021"
         inkscape:connector-curvature="0" />
      <text
         xml:space="preserve"
         style="font-style:italic;font-variant:normal;font-weight:normal;font-stretch:normal;font-size:8.12856623px;line-height:1.25;font-family:C059;-inkscape-font-specification:'C059, Italic';font-variant-ligatures:normal;font-variant-caps:normal;font-variant-numeric:normal;font-feature-settings:normal;text-align:start;letter-spacing:0px;word-spacing:0px;writing-mode:lr;text-anchor:start;fill:#000000;fill-opacity:1;stroke:none;stroke-width:0.38102654;"
         x="49.317619"
         y="52.796787"
         id="text2215"><tspan
           sodipodi:role="line"
           id="tspan2213"
           x="49.317619"
           y="52.796787"
           style="font-style:italic;font-variant:normal;font-weight:normal;font-stretch:normal;font-size:8.12856623px;font-family:C059;-inkscape-font-specification:'C059, Italic';font-variant-ligatures:normal;font-variant-caps:normal;font-variant-numeric:normal;font-feature-settings:normal;text-align:start;writing-mode:lr;text-anchor:start;stroke-width:0.38102654;">Ω</tspan></text>
    </g>
  </g>
</svg>
